HIERARCHY
ROOT Hips
{
  OFFSET 40.8438 95.3642 3.7442
  CHANNELS 6 Xposition Yposition Zposition Zrotation Xrotation Yrotation
  JOINT spine
  {
    OFFSET 0 8.13249 0.467659
    CHANNELS 3 Zrotation Xrotation Yrotation
    JOINT spine1
    {
      OFFSET 0 10.3498 0
      CHANNELS 3 Zrotation Xrotation Yrotation
      JOINT spine2
      {
        OFFSET 0 9.91699 0
        CHANNELS 3 Zrotation Xrotation Yrotation
        JOINT Neck
        {
          OFFSET 0 25.461 1.2139
          CHANNELS 3 Zrotation Xrotation Yrotation
          JOINT Head
          {
            OFFSET 0 7.69245 0
            CHANNELS 3 Zrotation Xrotation Yrotation
            End Site
            {
              OFFSET 0 18.62 -6.14063
            }
          }
        }
        JOINT RightShoulder
        {
          OFFSET -4.17575 10.7096 -0.581445
          CHANNELS 3 Zrotation Xrotation Yrotation
          JOINT RightArm
          {
            OFFSET 0 14.0466 0
            CHANNELS 3 Zrotation Xrotation Yrotation
            JOINT RightArmRoll
            {
              OFFSET 0 7.09098 0
              CHANNELS 3 Zrotation Xrotation Yrotation
              JOINT RightForeArm
              {
                OFFSET 0 20.6535 0
                CHANNELS 3 Zrotation Xrotation Yrotation
                JOINT RightForeArmRoll
                {
                  OFFSET 0 7.95718 0
                  CHANNELS 3 Zrotation Xrotation Yrotation
                  JOINT RightHand
                  {
                    OFFSET 0 15.9683 0
                    CHANNELS 3 Zrotation Xrotation Yrotation
                    End Site
                    {
                      OFFSET 0 0 0
                    }
                  }
                }
              }
            }
          }
        }
        JOINT LeftShoulder
        {
          OFFSET 4.17575 10.7096 -0.581445
          CHANNELS 3 Zrotation Xrotation Yrotation
          JOINT LeftArm
          {
            OFFSET 0 14.0466 0
            CHANNELS 3 Zrotation Xrotation Yrotation
            JOINT LeftArmRoll
            {
              OFFSET 0 7.09098 0
              CHANNELS 3 Zrotation Xrotation Yrotation
              JOINT LeftForeArm
              {
                OFFSET 0 20.6535 0
                CHANNELS 3 Zrotation Xrotation Yrotation
                JOINT LeftForeArmRoll
                {
                  OFFSET 0 7.95718 0
                  CHANNELS 3 Zrotation Xrotation Yrotation
                  JOINT LeftHand
                  {
                    OFFSET 0 15.9683 0
                    CHANNELS 3 Zrotation Xrotation Yrotation
                    End Site
                    {
                      OFFSET 0 0 0
                    }
                  }
                }
              }
            }
          }
        }
      }
    }
  }
  JOINT RightUpLeg
  {
    OFFSET -7.20834 -1.32182 -1.10884
    CHANNELS 3 Zrotation Xrotation Yrotation
    JOINT RightUpLegRoll
    {
      OFFSET 0 18.7238 0
      CHANNELS 3 Zrotation Xrotation Yrotation
      JOINT RightLeg
      {
        OFFSET 0 -23.1866 0
        CHANNELS 3 Zrotation Xrotation Yrotation
        JOINT RightLegRoll
        {
          OFFSET 0 23.2624 0
          CHANNELS 3 Zrotation Xrotation Yrotation
          JOINT RightFoot
          {
            OFFSET 0 19.3621 0
            CHANNELS 3 Zrotation Xrotation Yrotation
            JOINT RightToeBase
            {
              OFFSET 0 16.1857 0
              CHANNELS 3 Zrotation Xrotation Yrotation
              End Site
              {
                OFFSET 0.00686052 7.83863 -0.903522
              }
            }
          }
        }
      }
    }
  }
  JOINT LeftUpLeg
  {
    OFFSET 7.20834 -1.32182 -1.10884
    CHANNELS 3 Zrotation Xrotation Yrotation
    JOINT LeftUpLegRoll
    {
      OFFSET 0 18.7239 0
      CHANNELS 3 Zrotation Xrotation Yrotation
      JOINT LeftLeg
      {
        OFFSET 0 23.1865 0
        CHANNELS 3 Zrotation Xrotation Yrotation
        JOINT LeftLegRoll
        {
          OFFSET 0 23.4775 0
          CHANNELS 3 Zrotation Xrotation Yrotation
          JOINT LeftFoot
          {
            OFFSET 0 19.147 0
            CHANNELS 3 Zrotation Xrotation Yrotation
            JOINT LeftToeBase
            {
              OFFSET 0 16.1857 0
              CHANNELS 3 Zrotation Xrotation Yrotation
              End Site
              {
                OFFSET -0.0307459 7.83863 -0.903522
              }
            }
          }
        }
      }
    }
  }
}
MOTION
Frames: 5
Frame Time: 0.00208333
47.3411 96.008 -2.89942 -4.23377 -4.25226 17.3963 1.10907 -0.0375731 -1.31706 2.23457 3.90013 -2.77772 2.2713 5.54363 -2.8183 37.3054 -6.81765 -7.69071 -30.814 8.85002 -4.87648 70.4721 -28.1585 -15.565 70.5433 40.1368 -25.269 1.76404e-005 5.37249e-006 1.7507e-006 -170.285 50.1896 141.351 -4.15212e-006 -6.81518e-006 -3 8.0291 -4.95145 0.697666 -22.618 9.20249 -16.3322 90.4418 71.4627 161.505 2.3231e-005 1.47437e-006 4.8717e-006 11.2192 -0.160139 0.547011 5.76312e-006 3.3748e-007 3.06243 -8.02895 -4.95146 -0.697671 -179.077 3.44183 -0.393599 180 7.01575e-015 179.055 177.602 6.84238 179.896 -7.7875e-007 -2.09955e-006 0.0190706 -17.0097 66.762 18.5811 8.13649 25.2327 -3.48204 -171.129 -3.29582 -4.08879 4.5067e-006 -1.99009e-005 -0.922965 -2.16627 -15.8334 0.122771 -3.27701e-006 -3.04128e-006 -0.548445 31.9735 77.4731 -33.6118 -8.15674 25.6657 2.89769 
47.3419 96.0094 -2.88566 -4.29829 -4.24462 17.3373 1.13377 -0.0279781 -1.32847 2.28444 3.91846 -2.80387 2.32158 5.56191 -2.84534 37.2931 -7.13928 -7.50682 -31.0023 9.04287 -4.75823 70.4677 -28.3435 -15.6641 70.5248 39.8976 -25.6104 1.76404e-005 5.37249e-006 1.7507e-006 -170.29 49.7947 140.928 -4.15212e-006 -6.81518e-006 -3 8.0291 -4.95145 0.697666 -22.3139 9.16696 -16.4147 89.9365 71.5129 161.976 2.3231e-005 1.47437e-006 4.8717e-006 11.3366 -0.119988 0.523454 5.76312e-006 3.37479e-007 3.06424 -8.02895 -4.95146 -0.697671 -179.007 3.44628 -0.438411 180 7.01575e-015 179.055 177.609 6.81302 179.897 -7.7875e-007 -2.09955e-006 0.0198218 -17.0524 66.7646 18.5818 8.13649 25.2327 -3.48204 -171.074 -3.28626 -4.12433 4.5067e-006 -1.99009e-005 -0.919509 -2.17483 -15.8513 0.121247 -3.27701e-006 -3.04128e-006 -0.548485 32.0404 77.4976 -33.6809 -8.15663 25.6654 2.89801 
47.3533 96.0049 -2.87881 -4.35657 -4.23376 17.2736 1.1564 -0.0196027 -1.33979 2.33014 3.93439 -2.82959 2.36766 5.57781 -2.87186 37.2871 -7.43994 -7.3283 -31.191 9.21746 -4.64182 70.466 -28.5202 -15.7591 70.5016 39.655 -25.9442 1.76404e-005 5.37249e-006 1.7507e-006 -170.299 49.4095 140.514 -4.15212e-006 -6.81518e-006 -3 8.0291 -4.95145 0.697666 -22.0243 9.13868 -16.4985 89.429 71.5747 162.447 2.3231e-005 1.47437e-006 4.8717e-006 11.4476 -0.0932539 0.502465 5.76312e-006 3.3748e-007 3.06586 -8.02895 -4.95146 -0.697671 -178.946 3.45618 -0.478085 180 7.01575e-015 179.055 177.615 6.78911 179.897 -7.7875e-007 -2.09955e-006 0.0204992 -17.0892 66.7657 18.5816 8.13649 25.2327 -3.48204 -171.029 -3.27918 -4.15479 4.5067e-006 -1.99009e-005 -0.916514 -2.18414 -15.8639 0.119543 -3.27701e-006 -3.04128e-006 -0.548189 32.0973 77.5185 -33.7396 -8.15659 25.6661 2.89703 
47.3552 96.0112 -2.86868 -4.40772 -4.21932 17.205 1.17662 -0.0125578 -1.35104 2.37098 3.94773 -2.8548 2.40888 5.5911 -2.89779 37.2894 -7.71824 -7.15587 -31.3809 9.37254 -4.52762 70.4681 -28.6882 -15.8498 70.4726 39.4085 -26.2701 1.76404e-005 5.37249e-006 1.7507e-006 -170.313 49.034 140.108 -4.15212e-006 -6.81518e-006 -3 8.0291 -4.95145 0.697666 -21.7501 9.1196 -16.5848 88.9159 71.6492 162.92 2.3231e-005 1.47437e-006 4.8717e-006 11.5531 -0.0839776 0.484262 5.76312e-006 3.37479e-007 3.06725 -8.02895 -4.95146 -0.697671 -178.896 3.47226 -0.511889 180 7.01575e-015 179.055 177.62 6.7715 179.897 -7.7875e-007 -2.09955e-006 0.021095 -17.1196 66.7652 18.5802 8.13649 25.2327 -3.48204 -170.994 -3.27484 -4.1795 4.5067e-006 -1.99009e-005 -0.914043 -2.19428 -15.8705 0.11764 -3.27701e-006 -3.04128e-006 -0.547521 32.1428 77.5351 -33.7865 -8.15662 25.6678 2.89459 
47.3669 96.0089 -2.84759 -4.45278 -4.20061 17.1299 1.19499 -0.00712728 -1.3625 2.40807 3.95787 -2.88019 2.44633 5.6012 -2.92384 37.2914 -7.96921 -6.98793 -31.5675 9.5039 -4.41406 70.471 -28.8468 -15.9357 70.4413 39.1587 -26.5929 1.76404e-005 5.37249e-006 1.7507e-006 -170.326 48.6686 139.704 -4.15212e-006 -6.81518e-006 -3 8.0291 -4.95145 0.697666 -21.4959 9.1065 -16.6693 88.3997 71.7423 163.401 2.3231e-005 1.47437e-006 4.8717e-006 11.6454 -0.0847229 0.46992 5.76312e-006 3.3748e-007 3.0684 -8.02895 -4.95146 -0.697671 -178.854 3.49545 -0.540806 180 7.01575e-015 179.055 177.625 6.76003 179.898 -7.7875e-007 -2.09955e-006 0.0216173 -17.1437 66.7628 18.5775 8.13649 25.2327 -3.48204 -170.97 -3.27298 -4.19908 4.5067e-006 -1.99009e-005 -0.912035 -2.20561 -15.8708 0.11543 -3.27701e-006 -3.04128e-006 -0.546435 32.178 77.5479 -33.8229 -8.15672 25.6705 2.89081 
